<svg xmlns="http://www.w3.org/2000/svg" xmlns:xlink="http://www.w3.org/1999/xlink" width="143" height="131" viewBox="0 0 143 131">
  <defs>
    <clipPath id="clip-path">
      <rect id="Rectangle_4" data-name="Rectangle 4" width="143" height="131" transform="translate(720.143 201.606)"/>
    </clipPath>
    <clipPath id="clip-path-2">
      <rect id="Rectangle_3" data-name="Rectangle 3" width="143" height="131" transform="translate(0.143 -0.441)"/>
    </clipPath>
  </defs>
  <g id="polecam_logo" transform="translate(-720.143 -201.606)" clip-path="url(#clip-path)">
    <g id="Group_18" data-name="Group 18" transform="translate(720 202.047)" clip-path="url(#clip-path-2)">
      <g id="Group_17" data-name="Group 17" transform="translate(0 0)" clip-path="url(#clip-path-2)">
        <g id="Group_16" data-name="Group 16" transform="translate(0 0)" clip-path="url(#clip-path-2)">
          <path id="Path_654" data-name="Path 654" d="M71.617,35.861a17.93,17.93,0,1,0-17.9-17.93c0,2.914-1.074,5.917-3.581,7.351L36.615,33.171c-3.536,2.062-7.923,1.21-11.683-.4A17.432,17.432,0,0,0,17.9,31.333a17.953,17.953,0,0,0,0,35.905A17.432,17.432,0,0,0,24.932,65.8c3.76-1.614,8.146-2.42,11.683-.359l13.518,7.889c2.507,1.479,3.581,4.438,3.581,7.351a17.912,17.912,0,0,0,17.9,17.93,17.433,17.433,0,0,0,7.028-1.434c3.76-1.614,8.146-2.421,11.682-.359l13.518,7.889c2.507,1.479,3.581,4.438,3.581,7.351a17.9,17.9,0,1,0,17.9-17.93,17.433,17.433,0,0,0-7.028,1.434c-3.76,1.614-8.146,2.421-11.682.359L93.1,88.038c-2.507-1.479-3.581-4.438-3.581-7.351S90.6,74.769,93.1,73.335l13.518-7.889c3.536-2.062,7.922-1.21,11.682.359a17.433,17.433,0,0,0,7.028,1.434,17.93,17.93,0,1,0-17.9-17.93c0,2.914-1.074,5.917-3.581,7.351L90.327,64.549c-3.536,2.062-7.922,1.21-11.682-.359a17.932,17.932,0,0,0-14.055,0c-3.76,1.614-8.146,2.42-11.683.359L39.39,56.66c-2.507-1.479-3.581-4.438-3.581-7.351s1.074-5.917,3.581-7.351l13.518-7.889c3.536-2.062,7.923-1.21,11.683.4a17.433,17.433,0,0,0,7.028,1.434Z" transform="translate(0.301 0.264)" fill-rule="evenodd"/>
        </g>
      </g>
    </g>
  </g>
</svg>
